<svg xmlns="http://www.w3.org/2000/svg" viewBox="-89.30 -228.30 307.60 307.60">
  <defs>
    <mask id="cutmask" maskUnits="userSpaceOnUse" x="-89.30000000000001" y="-228.3" width="307.6" height="307.6">
      <rect x="-89.30000000000001" y="-228.3" width="307.6" height="307.6" fill="black"/>
      <path d="M63.80 2.40Q48.80 2.40 36.80-4.90Q24.80-12.20 17.90-24.90Q11-37.60 11-53.60Q11-69.80 17.90-82.40Q24.80-95 36.70-102.30Q48.60-109.60 63.80-109.60Q77.60-109.60 88.40-103.60Q99.20-97.60 105.40-87.40L103-83.20L103-151.40L118-151.40L118 0L103 0L103-24L105.40-21.80Q99.80-10.20 88.70-3.90Q77.60 2.40 63.80 2.40M64.60-12.60Q75.40-12.60 84.10-18Q92.80-23.40 97.90-32.70Q103-42 103-53.60Q103-65.20 97.90-74.50Q92.80-83.80 84.10-89.20Q75.40-94.60 64.60-94.60Q54-94.60 45.40-89.20Q36.80-83.80 31.90-74.60Q27-65.40 27-53.60Q27-42 31.90-32.70Q36.80-23.40 45.30-18Q53.80-12.60 64.60-12.60" fill="white"/>
      <rect x="-296.60" y="-130.64" width="722.20" height="28.45" fill="black" transform="rotate(-6 64.50 -116.41)"/>
    </mask>
  </defs>
  <rect x="-89.30000000000001" y="-228.3" width="307.6" height="307.6" rx="55.37" fill="#17181a"/>
  <rect x="-89.30000000000001" y="-228.3" width="307.6" height="307.6" fill="#f7f6f3" mask="url(#cutmask)"/>
</svg>